<svg width="396" height="251.83794470065635" viewBox="0 0 349.99999999999994 222.58404203340834" xmlns="http://www.w3.org/2000/svg">
    <g id="SvgjsG1929" featurekey="symbolFeature-0" transform="matrix(2.127252895903107,0,0,2.127252895903107,107.38660640349714,-1.5391879530333357)" fill="#a5ecd7">
        <g xmlns="http://www.w3.org/2000/svg">
            <path fill="#059669"
                  d="M9.6,6.4c2.7,0,5.4,0,8.2,0c0,1.3,0,2.6,0,4.2c0.6-0.4,1-0.7,1.3-0.9c3.5-2.7,7-5.4,10.5-8.1   c1.6-1.2,3.4-1.2,5.2,0.2c5,3.8,10,7.7,15,11.5c4.1,3.1,8.1,6.3,12.2,9.4c1.1,0.8,1.8,1.8,1.5,3.1c-0.5,2.5-3.8,3.5-6.1,1.7   c-3.5-2.6-6.9-5.3-10.4-8c-4.6-3.5-9.1-7-13.6-10.5c-1-0.8-1.6-0.8-2.6,0c-7.9,6.2-15.9,12.3-24,18.4c-0.6,0.4-1.2,0.8-1.9,1   c-1.6,0.5-3.3-0.2-4.1-1.4c-0.9-1.2-0.6-2.9,0.8-4c2.3-1.8,4.7-3.6,7-5.5c0.5-0.4,0.9-1.2,0.9-1.8C9.7,12.7,9.6,9.6,9.6,6.4z"></path>
            <path fill="#059669" d="M23.4,25.1h5.8V33h-7.9v-5.8C21.3,26.1,22.3,25.1,23.4,25.1z"></path>
            <path fill="#059669" d="M21.3,37.7h7.9v7.9h-5.8c-1.2,0-2.1-0.9-2.1-2.1L21.3,37.7L21.3,37.7z"></path>
            <path fill="#059669" d="M42.7,27.2V33h-7.9v-7.9h5.8C41.7,25.1,42.7,26.1,42.7,27.2z"></path>
            <path fill="#059669" d="M42.7,37.7v1.9c-2.2,1.7-3.8,4.2-4.6,5.6c-0.1,0.1-0.1,0.2-0.2,0.4c0,0,0,0,0,0h-3v-7.9   C34.8,37.7,42.7,37.7,42.7,37.7z"></path>
            <path fill="#059669"
                  d="M62.8,36.3c0,0.1-3,0.5-3.2,0.6c-1.6,0.3-3.2,0.5-4.8,0.8c-3.3,0.6-6.5,1.4-9.3,3.1   c-0.3,0.2-0.6,0.4-0.9,0.6c-1.7,1.2-3.3,3.3-4.4,5.1c-0.1,0.1-0.1,0.2-0.2,0.4c-1.5,2.6-2.5,5.4-3.1,8.3c-0.2,0.8-0.3,1.6-0.4,2.4   c0,0.3-0.2,2.3-0.3,3.5c0.1-0.1,0.4-0.3,0.9-0.7c0.6-0.5,1.4-1.1,2.4-1.9c1-0.8,2.1-1.8,3.4-2.8c0.6-0.5,1.2-1.1,1.9-1.7   c0.3-0.2,0.5-0.5,0.8-0.7v0c0.4-0.3,0.7-0.6,1.1-1c0.6-0.6,1.2-1.2,1.8-1.8c0.6-0.6,1.2-1.2,1.8-1.8c0.6-0.6,1.1-1.2,1.6-1.7   c0.1-0.1,0.1-0.1,0.2-0.2h0.3l0,0c-0.1,0.1-0.2,0.2-0.3,0.4c-0.5,0.6-1,1.1-1.5,1.8c-0.5,0.6-1.1,1.2-1.7,1.8   c-0.6,0.6-1.2,1.2-1.8,1.9c-0.5,0.5-1,1-1.5,1.4v0c-0.1,0.1-0.3,0.2-0.4,0.4c-0.6,0.6-1.2,1.2-1.8,1.7c-1.2,1.1-2.3,2.1-3.3,3   c-1,0.9-1.8,1.6-2.4,2.1c-0.5,0.4-0.8,0.6-0.9,0.7C64.3,60.6,62.8,36.3,62.8,36.3z"></path>
            <path fill="#059669"
                  d="M30.9,55.9c-0.7-0.9-1.5-1.6-2.3-2.3C20,46.4,10,51.9,10,51.9c0,0,1.2,1.7,1.3,1.9c2.1,3,4.1,6.3,7.4,8.1   c1.3,0.7,3.1,1.1,4.6,1.2c2.7,0.3,5.6-0.1,8.2-1c0.3-0.1,2.9-1,2.9-1.1C33.3,59,32.1,57.3,30.9,55.9z"></path>
        </g>
    </g>
    <g id="SvgjsG1930" featurekey="nameFeature-0" transform="matrix(1.037594432556045,0,0,1.037594432556045,-2.07518886511209,138.22465749694277)" fill="#000000">
        <path d="M2.52 40 c-0.28 0 -0.52 -0.24 -0.52 -0.52 l0 -23.96 c0 -0.28 0.24 -0.52 0.52 -0.52 l5.2 0 c0.28 0 0.52 0.24 0.52 0.52 l0 18.72 l9 0 c0.28 0 0.52 0.24 0.52 0.52 l0 4.72 c0 0.28 -0.24 0.52 -0.52 0.52 l-14.72 0 z M25.965 40 c-0.16 0 -0.32 -0.08 -0.4 -0.24 c-0.12 -0.12 -0.12 -0.32 -0.08 -0.48 l9.32 -23.96 c0.08 -0.2 0.28 -0.32 0.48 -0.32 l5.36 0 c0.2 0 0.4 0.12 0.48 0.32 l9.16 23.96 c0.04 0.16 0.04 0.32 -0.08 0.48 c-0.08 0.16 -0.24 0.24 -0.4 0.24 l-5.56 0 c-0.2 0 -0.4 -0.12 -0.48 -0.32 l-1.48 -3.68 l-9 0.04 l-1.48 3.64 c-0.08 0.2 -0.28 0.32 -0.48 0.32 l-5.36 0 z M34.925 31 l5.76 0 l-2.88 -8.48 z M58.13 40 c-0.28 0 -0.52 -0.24 -0.52 -0.52 l0 -23.96 c0 -0.28 0.24 -0.52 0.52 -0.52 l5.2 0 c0.28 0 0.52 0.24 0.52 0.52 l0 7.08 l7.24 -7.44 c0.12 -0.08 0.24 -0.16 0.4 -0.16 l6.04 0 c0.2 0 0.4 0.12 0.48 0.28 c0.08 0.2 0.04 0.4 -0.08 0.56 l-8.08 8.64 l9 14.68 c0.08 0.08 0.12 0.2 0.12 0.32 c0 0.28 -0.24 0.52 -0.52 0.52 l-6.24 0 c-0.16 0 -0.32 -0.08 -0.4 -0.24 l-6.6 -11.16 l-1.36 1.2 l0 9.68 c0 0.28 -0.24 0.52 -0.52 0.52 l-5.2 0 z  M86.655 40 l0 -23.96 c0 -1 0.2 -1.2 0.52 -1.2 l17.52 0 c0.28 0 0.52 0.2 0.52 0.48 l0 4.52 c0 0.28 -0.24 0.52 -0.52 0.52 l-11.84 0 l0 4.16 l7.48 0 c0.28 0 0.52 0.24 0.52 0.52 l0 4.48 c0 0.28 -0.24 0.52 -0.52 0.52 l-7.48 0 l0 4.28 l11.8 0 c0.28 0 0.52 0.24 0.52 0.52 l0 4.48 c0 0.28 -0.24 0.52 -0.52 0.52 l-17.48 0 c-0.32 0 -0.52 -0.24 -0.52 0.16 z M139.985 40 c-2.36 0 -4.52 -0.56 -6.44 -1.68 c-1.92 -1.16 -3.44 -2.72 -4.52 -4.68 s-1.64 -4.16 -1.64 -6.6 c0 -2.36 0.56 -4.56 1.68 -6.52 c1.12 -1.92 2.68 -3.48 4.6 -4.6 c1.96 -1.12 4.16 -1.68 6.48 -1.68 c1.76 0 3.48 0.4 5.16 1.12 c1.68 0.76 3.12 1.76 4.32 3.04 c0.16 0.2 0.16 0.48 0 0.68 l-3.8 3.12 c-0.12 0.12 -0.24 0.2 -0.4 0.2 s-0.32 -0.08 -0.4 -0.2 c-2.04 -2.48 -5.32 -3 -8.08 -1.28 c-2.4 1.48 -3.28 4.2 -3.16 6.92 c0.12 2.76 2.12 5.12 4.76 5.92 c2.4 0.72 4.76 0.16 6.48 -1.68 c0.12 -0.08 0.24 -0.16 0.4 -0.12 c0.16 0 0.28 0.04 0.36 0.16 l3.88 2.72 c0.16 0.2 0.16 0.48 0 0.68 c-1.28 1.36 -2.8 2.48 -4.48 3.28 c-1.72 0.8 -3.48 1.2 -5.2 1.2 z M157.99 40 c-0.32 0 -0.52 -0.24 -0.52 -0.52 l0 -23.96 c0 -0.28 0.2 -0.52 0.52 -0.52 l9.76 0 c3.04 0 5.44 0.76 7.12 2.32 c2.48 2.24 3.32 6.48 2.12 9.6 c-0.44 1.12 -1.2 2.16 -2.16 2.92 c-0.56 0.44 -1.16 0.76 -1.76 1.08 c1.72 2.72 4.32 8.24 4.32 8.24 c0.04 0.08 0.12 0.2 0.12 0.32 c0 0.28 -0.24 0.52 -0.52 0.52 l-5.92 0 c-0.16 0 -0.36 -0.12 -0.44 -0.28 l-3.48 -7.64 c-1.24 0.08 -2.2 0.04 -3.48 0.04 l0 7.36 c0 0.28 -0.24 0.52 -0.52 0.52 l-5.16 0 z M163.67 26.560000000000002 c0 0 5.04 0.56 6.8 -0.6 c0.68 -0.44 1.08 -1.52 1.08 -2.32 c-0.04 -0.88 -0.48 -1.8 -1.2 -2.36 c-0.76 -0.64 -2.64 -0.84 -3.6 -0.84 l-3.08 0.08 l0 6.04 z M198.115 40 c-2.4 0 -4.6 -0.56 -6.52 -1.68 c-1.96 -1.12 -3.52 -2.72 -4.68 -4.64 c-1.12 -1.96 -1.68 -4.2 -1.68 -6.6 c0 -2.36 0.56 -4.56 1.68 -6.52 c1.16 -1.96 2.68 -3.52 4.64 -4.64 s4.16 -1.68 6.56 -1.68 c2.36 0 4.56 0.56 6.52 1.68 s3.52 2.68 4.64 4.64 c1.16 1.96 1.72 4.16 1.72 6.52 c0 2.4 -0.56 4.6 -1.72 6.56 c-1.12 1.96 -2.68 3.52 -4.64 4.68 c-1.96 1.12 -4.16 1.68 -6.52 1.68 z M198.19500000000002 34.24 c1.16 0 2.24 -0.32 3.2 -0.92 c1 -0.64 1.8 -1.48 2.36 -2.6 c0.6 -1.08 0.88 -2.32 0.88 -3.64 c0 -1.28 -0.28 -2.52 -0.88 -3.6 c-0.56 -1.08 -1.36 -1.92 -2.36 -2.56 c-0.96 -0.6 -2.04 -0.92 -3.2 -0.92 c-1.2 0 -2.28 0.32 -3.28 0.92 c-1.04 0.64 -1.84 1.48 -2.44 2.56 c-0.6 1.12 -0.88 2.32 -0.88 3.6 c0 1.32 0.28 2.56 0.88 3.64 c0.64 1.08 1.44 1.96 2.44 2.56 c1 0.64 2.08 0.96 3.28 0.96 z M228.96 40.24 c-1.92 0 -3.84 -0.36 -5.68 -1.08 c-1.84 -0.68 -3.48 -1.68 -4.84 -2.88 c-0.16 -0.16 -0.2 -0.4 -0.12 -0.6 l1.4 -4.76 c0.08 -0.16 0.2 -0.28 0.36 -0.28 c0.16 -0.04 0.32 0 0.44 0.12 c2.12 2 4.52 3.8 7.52 3.96 c0.8 0.04 1.68 0.08 2.44 -0.16 c2.36 -0.76 1.36 -3.16 -0.4 -3.88 c-0.6 -0.24 -1.44 -0.52 -2.52 -0.84 c-1.6 -0.44 -2.92 -0.92 -3.92 -1.4 c-1.08 -0.48 -2 -1.24 -2.8 -2.24 c-0.76 -1.04 -1.16 -2.4 -1.16 -4.04 c0 -1.56 0.4 -2.92 1.2 -4.08 s1.92 -2.08 3.32 -2.68 s3.04 -0.92 4.88 -0.92 c1.64 0 3.24 0.24 4.84 0.76 c1.56 0.48 2.96 1.16 4.2 1.96 c0.2 0.16 0.28 0.4 0.16 0.64 l-1.32 4.48 c-0.04 0.16 -0.16 0.24 -0.32 0.28 c-0.12 0.04 -0.28 0.04 -0.4 -0.04 c-1.8 -1.12 -3.6 -2.48 -5.72 -2.76 c-1.4 -0.2 -3.52 -0.12 -4 1.56 c-0.6 2.16 2.56 2.72 4 3.16 c1.6 0.48 2.92 0.96 3.96 1.44 c1.08 0.52 2.04 1.32 2.8 2.32 c0.8 1.04 1.2 2.44 1.2 4.12 c0 1.64 -0.44 3.04 -1.28 4.24 c-0.8 1.2 -1.96 2.08 -3.4 2.72 c-1.44 0.56 -3.04 0.88 -4.84 0.88 z M256.84499999999997 40.24 c-1.92 0 -3.84 -0.36 -5.68 -1.08 c-1.84 -0.68 -3.48 -1.68 -4.84 -2.88 c-0.16 -0.16 -0.2 -0.4 -0.12 -0.6 l1.4 -4.76 c0.08 -0.16 0.2 -0.28 0.36 -0.28 c0.16 -0.04 0.32 0 0.44 0.12 c2.12 2 4.52 3.8 7.52 3.96 c0.8 0.04 1.68 0.08 2.44 -0.16 c2.36 -0.76 1.36 -3.16 -0.4 -3.88 c-0.6 -0.24 -1.44 -0.52 -2.52 -0.84 c-1.6 -0.44 -2.92 -0.92 -3.92 -1.4 c-1.08 -0.48 -2 -1.24 -2.8 -2.24 c-0.76 -1.04 -1.16 -2.4 -1.16 -4.04 c0 -1.56 0.4 -2.92 1.2 -4.08 s1.92 -2.08 3.32 -2.68 s3.04 -0.92 4.88 -0.92 c1.64 0 3.24 0.24 4.84 0.76 c1.56 0.48 2.96 1.16 4.2 1.96 c0.2 0.16 0.28 0.4 0.16 0.64 l-1.32 4.48 c-0.04 0.16 -0.16 0.24 -0.32 0.28 c-0.12 0.04 -0.28 0.04 -0.4 -0.04 c-1.8 -1.12 -3.6 -2.48 -5.72 -2.76 c-1.4 -0.2 -3.52 -0.12 -4 1.56 c-0.6 2.16 2.56 2.72 4 3.16 c1.6 0.48 2.92 0.96 3.96 1.44 c1.08 0.52 2.04 1.32 2.8 2.32 c0.8 1.04 1.2 2.44 1.2 4.12 c0 1.64 -0.44 3.04 -1.28 4.24 c-0.8 1.2 -1.96 2.08 -3.4 2.72 c-1.44 0.56 -3.04 0.88 -4.84 0.88 z M274.57 40 c-0.28 0 -0.52 -0.24 -0.52 -0.52 l0 -23.96 c0 -0.28 0.24 -0.52 0.52 -0.52 l5.2 0 c0.28 0 0.52 0.24 0.52 0.52 l0 23.96 c0 0.28 -0.24 0.52 -0.52 0.52 l-5.2 0 z M288.495 40 c-0.28 0 -0.52 -0.24 -0.52 -0.52 l0 -23.96 c0 -0.28 0.24 -0.52 0.52 -0.52 l4.72 0 c0.16 0 0.32 0.08 0.44 0.2 l9.2 14.2 l0 -13.88 c0 -0.28 0.24 -0.52 0.52 -0.52 l4.92 0 c0.28 0 0.52 0.24 0.52 0.52 l0 23.96 c0 0.28 -0.24 0.52 -0.52 0.52 l-4.72 0 c-0.16 0 -0.32 -0.08 -0.44 -0.2 l-9.16 -14.12 l0 13.8 c0 0.28 -0.24 0.52 -0.52 0.52 l-4.96 0 z M329.26 40 c-2.36 0 -4.56 -0.56 -6.48 -1.68 c-1.96 -1.16 -3.48 -2.72 -4.6 -4.64 c-1.12 -1.96 -1.68 -4.2 -1.68 -6.6 s0.56 -4.6 1.72 -6.52 c1.12 -1.96 2.72 -3.52 4.68 -4.64 c2 -1.12 4.24 -1.68 6.68 -1.68 c1.76 0 3.48 0.32 5.2 1 c1.68 0.64 3.16 1.56 4.36 2.72 c0.2 0.16 0.24 0.44 0.08 0.68 l-2.92 3.84 c-0.12 0.12 -0.24 0.2 -0.4 0.24 c-0.12 0 -0.28 -0.08 -0.4 -0.16 c-0.8 -0.8 -1.72 -1.44 -2.8 -1.88 c-1.04 -0.44 -2.08 -0.68 -3.12 -0.68 c-1.24 0 -2.4 0.32 -3.4 0.92 c-1.04 0.64 -1.84 1.48 -2.44 2.56 s-0.88 2.28 -0.88 3.6 s0.28 2.56 0.88 3.64 s1.44 1.96 2.44 2.6 c1.04 0.6 2.2 0.92 3.4 0.92 c0.64 0 1.32 -0.12 2.08 -0.32 c0.64 -0.2 1.32 -0.48 1.92 -0.8 l0 -1.84 l-2.76 0 c-0.16 0 -0.28 -0.04 -0.36 -0.16 c-0.12 -0.08 -0.16 -0.2 -0.16 -0.36 l0.04 -4.48 c0 -0.28 0.24 -0.52 0.52 -0.52 l7.76 0 c0.28 0 0.52 0.24 0.52 0.52 l0 10.04 c0 0.16 -0.08 0.32 -0.24 0.44 c-1.24 0.96 -2.76 1.76 -4.52 2.32 c-1.76 0.6 -3.48 0.92 -5.12 0.92 z"></path>
    </g>
    <g id="SvgjsG1931" featurekey="sloganFeature-0" transform="matrix(1.4741497125460759,0,0,1.4741497125460759,34.99999964853532,192.83569476091887)" fill="#065f46">
        <path d="M6 20 l-0.02 -6.62 l-4.2 0 l0.02 6.62 l-1.8 0 l0 -15 l1.8 0 l-0.02 6.6 l4.2 0 l0.02 -6.6 l1.82 0 l0 15 l-1.82 0 z M13.16 20.18 c-1.2533 0 -2.1966 -0.35334 -2.83 -1.06 s-0.95 -1.74 -0.95 -3.1 l0 -7 c0 -1.3733 0.32 -2.41 0.96 -3.11 s1.66 -1.05 3.06 -1.05 c1.28 0 2.2334 0.35334 2.86 1.06 s0.94 1.7267 0.94 3.06 l0 7.04 c0 1.3733 -0.30666 2.41 -0.92 3.11 s-1.6533 1.05 -3.12 1.05 z M15.48 8.96 c0 -0.29334 -0.03664 -0.58334 -0.10998 -0.87 s-0.19 -0.54332 -0.35 -0.76998 s-0.37334 -0.41 -0.64 -0.55 s-0.6 -0.21 -1 -0.21 c-0.45334 0 -0.82668 0.06 -1.12 0.18 s-0.52668 0.29666 -0.70002 0.53 s-0.29334 0.51 -0.36 0.83 s-0.1 0.68 -0.1 1.08 l0 6.74 c0 0.30666 0.03334 0.61 0.1 0.91 s0.17666 0.57 0.33 0.81 s0.36334 0.43334 0.63 0.58 s0.6 0.22 1 0.22 c0.45334 0 0.83 -0.05666 1.13 -0.17 s0.53666 -0.27668 0.71 -0.49002 s0.29668 -0.47334 0.37002 -0.78 s0.11 -0.64666 0.11 -1.02 l0 -7.02 z M27.240000000000002 20 l0 -10.5 l-2.7 6.64 l-1.56 -0.02 l-2.62 -6.58 l0 10.46 l-1.68 0 l0 -15 l1.62 0 l3.48 8.62 l3.52 -8.62 l1.62 0 l0 15 l-1.68 0 z M30.9 20 l0 -15 l7.36 0 l0 1.88 l-5.68 0 l0 4.62 l5.64 0 l0 1.66 l-5.64 0 l0 4.96 l5.82 0 l0 1.88 l-7.5 0 z M42.96 20.18 c-1.2533 0 -2.1966 -0.35334 -2.83 -1.06 s-0.95 -1.74 -0.95 -3.1 l0 -7 c0 -1.3733 0.32 -2.41 0.96 -3.11 s1.66 -1.05 3.06 -1.05 c1.28 0 2.2334 0.35334 2.86 1.06 s0.94 1.7267 0.94 3.06 l0 7.04 c0 1.3733 -0.30666 2.41 -0.92 3.11 s-1.6533 1.05 -3.12 1.05 z M45.28 8.96 c0 -0.29334 -0.03664 -0.58334 -0.10998 -0.87 s-0.19 -0.54332 -0.35 -0.76998 s-0.37334 -0.41 -0.64 -0.55 s-0.6 -0.21 -1 -0.21 c-0.45334 0 -0.82668 0.06 -1.12 0.18 s-0.52668 0.29666 -0.70002 0.53 s-0.29334 0.51 -0.36 0.83 s-0.1 0.68 -0.1 1.08 l0 6.74 c0 0.30666 0.03334 0.61 0.1 0.91 s0.17666 0.57 0.33 0.81 s0.36334 0.43334 0.63 0.58 s0.6 0.22 1 0.22 c0.45334 0 0.83 -0.05666 1.13 -0.17 s0.53666 -0.27668 0.71 -0.49002 s0.29668 -0.47334 0.37002 -0.78 s0.11 -0.64666 0.11 -1.02 l0 -7.02 z M54.260000000000005 5.26 l-0.12 -0.26 l0.34 0 l1.12 0 l0 0.22 l2.46 10.76 l2.3 -10.98 l1.82 0 l-3.42 15 l-1.56 0 l-2.28 -11.14 l-2.26 11.14 l-1.54 0 l-3.42 -15 l1.8 0 l2.3 10.98 z M69.46000000000001 20 l-4.64 -10.76 l0 10.76 l-1.76 0 l0 -15 l1.68 0 l4.68 10.34 l0.1 -10.34 l1.74 0 l0 15 l-1.8 0 z M72.92 20 l0 -15 l7.36 0 l0 1.88 l-5.68 0 l0 4.62 l5.64 0 l0 1.66 l-5.64 0 l0 4.96 l5.82 0 l0 1.88 l-7.5 0 z M88.36000000000001 20 l-3 -5.9 l-2.18 0 l0 5.9 l-1.66 0 l0 -15 l3.48 0 c0.78666 0 1.46 0.12334 2.02 0.37 s1.02 0.58 1.38 1 s0.62666 0.9 0.8 1.44 s0.26 1.1033 0.26 1.69 c0 0.46666 -0.05666 0.92 -0.17 1.36 s-0.27668 0.84666 -0.49002 1.22 s-0.46334 0.71 -0.75 1.01 s-0.59666 0.53666 -0.93 0.71 l3.34 6.2 l-2.1 0 z M84.88000000000001 6.66 l-1.7 0.000019531 l0 5.7 l1.82 0 c0.54666 0 0.99666 -0.08334 1.35 -0.25 s0.63 -0.38666 0.83 -0.66 s0.34 -0.58668 0.42 -0.94002 s0.12 -0.72334 0.12 -1.11 s-0.06334 -0.74666 -0.19 -1.08 s-0.31 -0.62334 -0.55 -0.87 s-0.53666 -0.44 -0.89 -0.58 s-0.75668 -0.21 -1.21 -0.21 z M95.18 20.18 c-0.66666 0 -1.2599 -0.1 -1.7799 -0.3 s-0.95 -0.51334 -1.29 -0.94 s-0.59 -0.98 -0.75 -1.66 s-0.22 -1.4933 -0.18 -2.44 l1.84 0 c0 0.48 0.01334 0.94334 0.04 1.39 s0.10332 0.84 0.22998 1.18 s0.32332 0.61 0.58998 0.81 s0.64666 0.3 1.14 0.3 c0.42666 0 0.78332 -0.06334 1.07 -0.19 s0.51666 -0.29666 0.69 -0.51 s0.29668 -0.46668 0.37002 -0.76002 s0.11 -0.60668 0.11 -0.94002 c-0.01334 -0.72 -0.25 -1.2933 -0.71 -1.72 s-1.05 -0.79332 -1.77 -1.1 c-0.58666 -0.24 -1.11 -0.48334 -1.57 -0.73 s-0.84334 -0.53 -1.15 -0.85 s-0.54 -0.69334 -0.7 -1.12 s-0.24 -0.95332 -0.24 -1.58 c0 -1.3867 0.35334 -2.4266 1.06 -3.12 s1.7067 -1.04 3 -1.04 c1.1333 0 2.03 0.35334 2.69 1.06 s0.99 1.74 0.99 3.1 l0 1.42 l-1.76 0 l0 -1.52 c0 -0.72 -0.15666 -1.3 -0.47 -1.74 s-0.81 -0.66 -1.49 -0.66 c-0.84 0 -1.4333 0.22 -1.78 0.66 s-0.50666 1.06 -0.48 1.86 c0.01334 0.33334 0.07 0.62 0.17 0.86 s0.24334 0.45 0.43 0.63 s0.41332 0.34666 0.67998 0.5 s0.58 0.31 0.94 0.47 c0.44 0.2 0.87666 0.41334 1.31 0.64 s0.83668 0.5 1.21 0.82 c0.38666 0.34666 0.71332 0.76666 0.97998 1.26 s0.4 1.0933 0.4 1.8 c0 1.36 -0.34 2.3934 -1.02 3.1 s-1.6133 1.06 -2.8 1.06 z M111.36000000000003 20 l-1.02 -4.18 l-3.88 0 l-1.02 4.18 l-1.7 0 l4 -15 l1.38 0 l3.98 15 l-1.74 0 z M108.46000000000002 7.9 l-1.58 6.22 l3.04 0 z M117.66000000000003 20.18 c-0.66666 0 -1.2599 -0.1 -1.7799 -0.3 s-0.95 -0.51334 -1.29 -0.94 s-0.59 -0.98 -0.75 -1.66 s-0.22 -1.4933 -0.18 -2.44 l1.84 0 c0 0.48 0.01334 0.94334 0.04 1.39 s0.10332 0.84 0.22998 1.18 s0.32332 0.61 0.58998 0.81 s0.64666 0.3 1.14 0.3 c0.42666 0 0.78332 -0.06334 1.07 -0.19 s0.51666 -0.29666 0.69 -0.51 s0.29668 -0.46668 0.37002 -0.76002 s0.11 -0.60668 0.11 -0.94002 c-0.01334 -0.72 -0.25 -1.2933 -0.71 -1.72 s-1.05 -0.79332 -1.77 -1.1 c-0.58666 -0.24 -1.11 -0.48334 -1.57 -0.73 s-0.84334 -0.53 -1.15 -0.85 s-0.54 -0.69334 -0.7 -1.12 s-0.24 -0.95332 -0.24 -1.58 c0 -1.3867 0.35334 -2.4266 1.06 -3.12 s1.7067 -1.04 3 -1.04 c1.1333 0 2.03 0.35334 2.69 1.06 s0.99 1.74 0.99 3.1 l0 1.42 l-1.76 0 l0 -1.52 c0 -0.72 -0.15666 -1.3 -0.47 -1.74 s-0.81 -0.66 -1.49 -0.66 c-0.84 0 -1.4333 0.22 -1.78 0.66 s-0.50666 1.06 -0.48 1.86 c0.01334 0.33334 0.07 0.62 0.17 0.86 s0.24334 0.45 0.43 0.63 s0.41332 0.34666 0.67998 0.5 s0.58 0.31 0.94 0.47 c0.44 0.2 0.87666 0.41334 1.31 0.64 s0.83668 0.5 1.21 0.82 c0.38666 0.34666 0.71332 0.76666 0.97998 1.26 s0.4 1.0933 0.4 1.8 c0 1.36 -0.34 2.3934 -1.02 3.1 s-1.6133 1.06 -2.8 1.06 z M126.50000000000003 20.18 c-0.66666 0 -1.2599 -0.1 -1.7799 -0.3 s-0.95 -0.51334 -1.29 -0.94 s-0.59 -0.98 -0.75 -1.66 s-0.22 -1.4933 -0.18 -2.44 l1.84 0 c0 0.48 0.01334 0.94334 0.04 1.39 s0.10332 0.84 0.22998 1.18 s0.32332 0.61 0.58998 0.81 s0.64666 0.3 1.14 0.3 c0.42666 0 0.78332 -0.06334 1.07 -0.19 s0.51666 -0.29666 0.69 -0.51 s0.29668 -0.46668 0.37002 -0.76002 s0.11 -0.60668 0.11 -0.94002 c-0.01334 -0.72 -0.25 -1.2933 -0.71 -1.72 s-1.05 -0.79332 -1.77 -1.1 c-0.58666 -0.24 -1.11 -0.48334 -1.57 -0.73 s-0.84334 -0.53 -1.15 -0.85 s-0.54 -0.69334 -0.7 -1.12 s-0.24 -0.95332 -0.24 -1.58 c0 -1.3867 0.35334 -2.4266 1.06 -3.12 s1.7067 -1.04 3 -1.04 c1.1333 0 2.03 0.35334 2.69 1.06 s0.99 1.74 0.99 3.1 l0 1.42 l-1.76 0 l0 -1.52 c0 -0.72 -0.15666 -1.3 -0.47 -1.74 s-0.81 -0.66 -1.49 -0.66 c-0.84 0 -1.4333 0.22 -1.78 0.66 s-0.50666 1.06 -0.48 1.86 c0.01334 0.33334 0.07 0.62 0.17 0.86 s0.24334 0.45 0.43 0.63 s0.41332 0.34666 0.67998 0.5 s0.58 0.31 0.94 0.47 c0.44 0.2 0.87666 0.41334 1.31 0.64 s0.83668 0.5 1.21 0.82 c0.38666 0.34666 0.71332 0.76666 0.97998 1.26 s0.4 1.0933 0.4 1.8 c0 1.36 -0.34 2.3934 -1.02 3.1 s-1.6133 1.06 -2.8 1.06 z M135.34000000000003 20.18 c-1.2533 0 -2.1966 -0.35334 -2.83 -1.06 s-0.95 -1.74 -0.95 -3.1 l0 -7 c0 -1.3733 0.32 -2.41 0.96 -3.11 s1.66 -1.05 3.06 -1.05 c1.28 0 2.2334 0.35334 2.86 1.06 s0.94 1.7267 0.94 3.06 l0 7.04 c0 1.3733 -0.30666 2.41 -0.92 3.11 s-1.6533 1.05 -3.12 1.05 z M137.66000000000003 8.96 c0 -0.29334 -0.03664 -0.58334 -0.10998 -0.87 s-0.19 -0.54332 -0.35 -0.76998 s-0.37334 -0.41 -0.64 -0.55 s-0.6 -0.21 -1 -0.21 c-0.45334 0 -0.82668 0.06 -1.12 0.18 s-0.52668 0.29666 -0.70002 0.53 s-0.29334 0.51 -0.36 0.83 s-0.1 0.68 -0.1 1.08 l0 6.74 c0 0.30666 0.03334 0.61 0.1 0.91 s0.17666 0.57 0.33 0.81 s0.36334 0.43334 0.63 0.58 s0.6 0.22 1 0.22 c0.45334 0 0.83 -0.05666 1.13 -0.17 s0.53666 -0.27668 0.71 -0.49002 s0.29668 -0.47334 0.37002 -0.78 s0.11 -0.64666 0.11 -1.02 l0 -7.02 z M147.80000000000007 16.04 c-0.01334 0.68 -0.079962 1.2767 -0.19996 1.79 s-0.31666 0.94334 -0.59 1.29 s-0.63668 0.61 -1.09 0.79 s-1.02 0.27 -1.7 0.27 c-1.1867 0 -2.0566 -0.35666 -2.61 -1.07 s-0.83 -1.7433 -0.83 -3.09 l0 -7 c0 -1.3733 0.28 -2.41 0.84 -3.11 s1.4867 -1.05 2.78 -1.05 c1.2 0 2.06 0.35666 2.58 1.07 s0.79334 1.7367 0.82 3.07 l0.02 1.28 l-1.56 0 l-0.02 -1.5 c0 -0.29334 -0.02666 -0.58334 -0.08 -0.87 s-0.14668 -0.53666 -0.28002 -0.75 s-0.32 -0.38668 -0.56 -0.52002 s-0.56 -0.2 -0.96 -0.2 c-0.78666 0 -1.3167 0.23 -1.59 0.69 s-0.41 1.09 -0.41 1.89 l0.02 7.1 c0 0.81334 0.13 1.4167 0.39 1.81 s0.74334 0.59 1.45 0.59 c0.4 0 0.73 -0.05334 0.99 -0.16 s0.46666 -0.26 0.62 -0.46 s0.26 -0.44666 0.32 -0.74 s0.09 -0.62668 0.09 -1 l0.02 -1.62 l1.56 0 z M149.38000000000005 20 l0 -15 l1.5 0 l0 15 l-1.5 0 z M159.54000000000005 20 l-1.02 -4.18 l-3.88 0 l-1.02 4.18 l-1.7 0 l4 -15 l1.38 0 l3.98 15 l-1.74 0 z M156.64000000000004 7.9 l-1.58 6.22 l3.04 0 z M164.90000000000003 6.82 l0 13.18 l-1.8 0 l0 -13.18 l-2.94 0 l0 -1.82 l7.68 0 l0 1.82 l-2.94 0 z M169.14000000000001 20 l0 -15 l1.5 0 l0 15 l-1.5 0 z M176.14000000000001 20.18 c-1.2533 0 -2.1966 -0.35334 -2.83 -1.06 s-0.95 -1.74 -0.95 -3.1 l0 -7 c0 -1.3733 0.32 -2.41 0.96 -3.11 s1.66 -1.05 3.06 -1.05 c1.28 0 2.2334 0.35334 2.86 1.06 s0.94 1.7267 0.94 3.06 l0 7.04 c0 1.3733 -0.30666 2.41 -0.92 3.11 s-1.6533 1.05 -3.12 1.05 z M178.46 8.96 c0 -0.29334 -0.03664 -0.58334 -0.10998 -0.87 s-0.19 -0.54332 -0.35 -0.76998 s-0.37334 -0.41 -0.64 -0.55 s-0.6 -0.21 -1 -0.21 c-0.45334 0 -0.82668 0.06 -1.12 0.18 s-0.52668 0.29666 -0.70002 0.53 s-0.29334 0.51 -0.36 0.83 s-0.1 0.68 -0.1 1.08 l0 6.74 c0 0.30666 0.03334 0.61 0.1 0.91 s0.17666 0.57 0.33 0.81 s0.36334 0.43334 0.63 0.58 s0.6 0.22 1 0.22 c0.45334 0 0.83 -0.05666 1.13 -0.17 s0.53666 -0.27668 0.71 -0.49002 s0.29668 -0.47334 0.37002 -0.78 s0.11 -0.64666 0.11 -1.02 l0 -7.02 z M188.14000000000004 20 l-4.64 -10.76 l0 10.76 l-1.76 0 l0 -15 l1.68 0 l4.68 10.34 l0.1 -10.34 l1.74 0 l0 15 l-1.8 0 z"></path>
    </g>
</svg>